<?xml version="1.0" encoding="UTF-8" standalone="no"?>
<svg
   viewBox="0 0 47.031258 47"
   width="47.031258"
   height="47"
   version="1.1"
   id="svg1"
   sodipodi:docname="icons8-linkedin.svg"
   xmlns:inkscape="http://www.inkscape.org/namespaces/inkscape"
   xmlns:sodipodi="http://sodipodi.sourceforge.net/DTD/sodipodi-0.dtd"
   xmlns="http://www.w3.org/2000/svg"
   xmlns:svg="http://www.w3.org/2000/svg">
  <defs
     id="defs1" />
  <sodipodi:namedview
     id="namedview1"
     pagecolor="#505050"
     bordercolor="#eeeeee"
     borderopacity="1"
     inkscape:showpageshadow="0"
     inkscape:pageopacity="0"
     inkscape:pagecheckerboard="0"
     inkscape:deskcolor="#505050" />
  <g
     id="g3"
     transform="matrix(1.1190476,0,0,1.1190476,-5.0200868,-4.6160714)">
    <path
       id="path2"
       style="fill:#f5f5f5;fill-opacity:1;stroke-linecap:round;stroke-linejoin:round;-inkscape-stroke:none"
       d="m 25.75,8.875 -13.4375,1.5625 c 0,0 -4.1249999,12.8125 -4.0625,13.25 0.0625,0.4375 -0.0625,10.875 -0.0625,10.875 l 8.1875,8.5625 3.888672,2.119141 0.113281,0.203125 A 21,21 0 0 0 25.5,46.125 21,21 0 0 0 32.521484,44.861328 l 0.541016,-0.642578 9.5,-14.65625 -0.9375,-12.5 -4.1875,-6.9375 z" />
    <path
       d="m 25.5,4.125 c -11.604962,0 -21.0139649,9.409003 -21.0139649,21.013965 0,9.846794 6.7805059,18.08602 15.9215809,20.366035 -0.09806,-0.283689 -0.161107,-0.612907 -0.161107,-1.020929 v -3.591636 c -0.852817,0 -2.281767,0 -2.640755,0 -1.437706,0 -2.716055,-0.618161 -3.335967,-1.766925 -0.688207,-1.276598 -0.807286,-3.229146 -2.51292,-4.423439 -0.506086,-0.397515 -0.12083,-0.851066 0.462307,-0.789775 1.076966,0.304702 1.97006,1.043693 2.810618,2.139922 0.837056,1.09798 1.231068,1.346645 2.794857,1.346645 0.758254,0 1.893008,-0.04378 2.961218,-0.211891 0.574382,-1.458719 1.567292,-2.801862 2.780848,-3.435783 -6.99765,-0.719729 -10.337119,-4.201042 -10.337119,-8.927433 0,-2.034853 0.866826,-4.003161 2.339554,-5.661513 -0.483321,-1.646094 -1.090974,-5.003075 0.185624,-6.281424 3.148592,0 5.052107,2.041857 5.509161,2.593473 1.569043,-0.537607 3.292188,-0.842309 5.102891,-0.842309 1.814206,0 3.544356,0.304702 5.116901,0.845812 0.4518,-0.548115 2.357066,-2.596976 5.512663,-2.596976 1.281852,1.280101 0.667194,4.651091 0.178619,6.293682 1.463973,1.65485 2.325546,3.617905 2.325546,5.649255 0,4.722888 -3.334216,8.202451 -10.32136,8.925682 1.922778,1.003416 3.32546,3.82279 3.32546,5.946952 v 4.787681 c 0,0.182122 -0.04028,0.313459 -0.06129,0.469312 8.188441,-2.870157 14.0706,-10.645324 14.0706,-19.814418 C 46.513965,13.534003 37.104963,4.125 25.5,4.125 Z"
       id="path1-5"
       style="fill:#007ba8;fill-opacity:1;stroke-width:1.75116" />
  </g>
</svg>
