<?xml version="1.0" encoding="UTF-8" standalone="no"?>
<svg
   viewBox="0 0 42 42"
   width="42"
   height="42"
   version="1.1"
   id="svg1"
   sodipodi:docname="icons8-linkedin.svg"
   xmlns:inkscape="http://www.inkscape.org/namespaces/inkscape"
   xmlns:sodipodi="http://sodipodi.sourceforge.net/DTD/sodipodi-0.dtd"
   xmlns="http://www.w3.org/2000/svg"
   xmlns:svg="http://www.w3.org/2000/svg">
  <defs
     id="defs1" />
  <sodipodi:namedview
     id="namedview1"
     pagecolor="#505050"
     bordercolor="#eeeeee"
     borderopacity="1"
     inkscape:showpageshadow="0"
     inkscape:pageopacity="0"
     inkscape:pagecheckerboard="0"
     inkscape:deskcolor="#505050" />
  <rect
     style="fill:#f5f5f5;fill-opacity:1;stroke-linecap:round;stroke-linejoin:round;-inkscape-stroke:none"
     id="rect1"
     width="36.111111"
     height="35"
     x="1.9259257"
     y="3.7160492"
     ry="9" />
  <path
     d="M 37,0 H 5 C 2.24,0 0,2.24 0,5 v 32 c 0,2.76 2.24,5 5,5 h 32 c 2.76,0 5,-2.24 5,-5 V 5 C 42,2.24 39.76,0 37,0 Z M 13,16 V 35 H 7 V 16 Z M 7,10.47 C 7,9.07 8.2,8 10,8 11.8,8 12.93,9.07 13,10.47 13,11.87 11.88,13 10,13 8.2,13 7,11.87 7,10.47 Z M 35,35 h -6 c 0,0 0,-9.26 0,-10 0,-2 -1,-4 -3.5,-4.04 H 25.42 C 23,20.96 22,23.02 22,25 c 0,0.91 0,10 0,10 H 16 V 16 h 6 v 2.56 c 0,0 1.93,-2.56 5.81,-2.56 3.97,0 7.19,2.73 7.19,8.26 z"
     id="path1"
     style="fill:#007ba8;fill-opacity:1" />
</svg>
