<?xml version="1.0" encoding="UTF-8" standalone="no"?>
<svg
   viewBox="0 0 42 42"
   width="42"
   height="42"
   version="1.1"
   id="svg1"
   sodipodi:docname="icons8-linkedin.svg"
   xmlns:inkscape="http://www.inkscape.org/namespaces/inkscape"
   xmlns:sodipodi="http://sodipodi.sourceforge.net/DTD/sodipodi-0.dtd"
   xmlns="http://www.w3.org/2000/svg"
   xmlns:svg="http://www.w3.org/2000/svg">
  <defs
     id="defs1" />
  <sodipodi:namedview
     id="namedview1"
     pagecolor="#505050"
     bordercolor="#eeeeee"
     borderopacity="1"
     inkscape:showpageshadow="0"
     inkscape:pageopacity="0"
     inkscape:pagecheckerboard="0"
     inkscape:deskcolor="#505050" />
  <path
     d="M 37,-9.4287109e-8 H 5.0000002 C 2.2400002,-9.4287109e-8 2.3841858e-7,2.2399999 2.3841858e-7,4.9999999 V 37 C 2.3841858e-7,39.76 2.2400002,42 5.0000002,42 H 37 c 2.76,0 5,-2.24 5,-5 V 4.9999999 C 42,2.2399999 39.76,-9.428711e-8 37,-9.4287109e-8 Z M 13,16 V 35 H 7.0000002 V 16 Z M 7.0000002,10.47 c 0,-1.4000004 1.2,-2.4700004 2.9999998,-2.4700004 1.8,0 2.93,1.07 3,2.4700004 C 13,11.87 11.88,13 10,13 8.2000002,13 7.0000002,11.87 7.0000002,10.47 Z M 35,35 h -6 c 0,0 0,-9.26 0,-10 0,-2 -1,-4 -3.5,-4.04 H 25.42 C 23,20.96 22,23.02 22,25 c 0,0.91 0,10 0,10 H 16 V 16 h 6 v 2.56 c 0,0 1.93,-2.56 5.81,-2.56 3.97,0 7.19,2.73 7.19,8.26 z"
     id="path1"
     style="fill:#007ba8;fill-opacity:1" />
  <rect
     style="fill:#f5f5f5;fill-opacity:1;stroke-linecap:round;stroke-linejoin:round;-inkscape-stroke:none"
     id="rect1"
     width="31.75"
     height="27.75"
     x="5.875"
     y="7.6341896"
     ry="9" />
  <path
     d="M 10,3.0571289e-7 C 4.488666,3.0571289e-7 3.8418579e-8,4.4886664 3.8418579e-8,9.9999996 V 32 C 3.8418579e-8,37.511334 4.488666,42 10,42 h 22 c 5.511334,0 10,-4.488666 10,-10 V 9.9999996 C 42,4.4886664 37.511334,3.0571289e-7 32,3.0571289e-7 Z M 9.0000002,12 H 33 c 0.18,0 0.349766,0.02031 0.509766,0.07031 l -9.830078,9.820313 c -1.48,1.48 -3.889141,1.48 -5.369141,0 L 8.4902342,12.070312 c 0.16,-0.05 0.329766,-0.07031 0.509766,-0.07031 z M 7.0703122,13.490234 14.589844,21 7.0703122,28.509766 c -0.05,-0.159999 -0.07031,-0.329765 -0.07031,-0.509765 v -14 c 0,-0.18 0.02031,-0.349766 0.07031,-0.509767 z m 27.8593758,0 c 0.05,0.16 0.07031,0.329766 0.07031,0.509766 v 14 c 0,0.180001 -0.02031,0.349766 -0.07031,0.509766 L 27.400389,21.000001 Z M 16,22.410156 l 0.890625,0.900391 c 1.13,1.13 2.619609,1.689453 4.099609,1.689453 1.49,0 2.96961,-0.559453 4.09961,-1.689453 l 0.90039,-0.900391 7.519532,7.519532 c -0.16,0.05 -0.329766,0.07031 -0.509766,0.07031 H 9.0000002 c -0.18,0 -0.349766,-0.02031 -0.509766,-0.07031 z"
     id="path1-8"
     style="fill:#007ba8;fill-opacity:1" />
</svg>
